<?xml version="1.0" encoding="UTF-8" standalone="no"?>
<!DOCTYPE svg PUBLIC "-//W3C//DTD SVG 1.1//EN"
 "http://www.w3.org/Graphics/SVG/1.1/DTD/svg11.dtd">
<!-- Generated by graphviz version 2.47.0 (20210316.0004)
 -->
<!-- Title: dependencies Pages: 1 -->
<svg width="644pt" height="222pt"
 viewBox="0.00 0.00 644.00 222.00" xmlns="http://www.w3.org/2000/svg" xmlns:xlink="http://www.w3.org/1999/xlink">
<g id="graph0" class="graph" transform="scale(1 1) rotate(0) translate(4 218)">
<title>dependencies</title>
<polygon fill="white" stroke="transparent" points="-4,4 -4,-218 640,-218 640,4 -4,4"/>
<text text-anchor="start" x="297.01" y="-42.4" font-family="Times-12" font-weight="bold" font-size="14.00">Legend</text>
<polygon fill="#ffffb3" stroke="transparent" points="84,-10 84,-30 104,-30 104,-10 84,-10"/>
<text text-anchor="start" x="107.63" y="-15.4" font-family="Times-12" font-size="14.00"> &#160;Declarations</text>
<polygon fill="#8dd3c7" stroke="transparent" points="197,-10 197,-30 217,-30 217,-10 197,-10"/>
<text text-anchor="start" x="220.73" y="-15.4" font-family="Times-12" font-size="14.00"> &#160;Module</text>
<polygon fill="#80b1d3" stroke="transparent" points="283,-10 283,-30 303,-30 303,-10 283,-10"/>
<text text-anchor="start" x="306.78" y="-15.4" font-family="Times-12" font-size="14.00"> &#160;Bootstrap</text>
<polygon fill="#fdb462" stroke="transparent" points="380,-10 380,-30 400,-30 400,-10 380,-10"/>
<text text-anchor="start" x="403.67" y="-15.4" font-family="Times-12" font-size="14.00"> &#160;Providers</text>
<polygon fill="#fb8072" stroke="transparent" points="476,-10 476,-30 496,-30 496,-10 476,-10"/>
<text text-anchor="start" x="499.73" y="-15.4" font-family="Times-12" font-size="14.00"> &#160;Exports</text>
<g id="clust1" class="cluster">
<title>cluster_AppModule</title>
<polygon fill="none" stroke="black" stroke-dasharray="1,5" points="8,-70 8,-198 364,-198 364,-70 8,-70"/>
</g>
<g id="clust3" class="cluster">
<title>cluster_AppModule_imports</title>
<polygon fill="none" stroke="black" points="154,-78 154,-130 356,-130 356,-78 154,-78"/>
</g>
<g id="clust6" class="cluster">
<title>cluster_AppModule_providers</title>
<polygon fill="none" stroke="black" points="16,-78 16,-130 146,-130 146,-78 16,-78"/>
</g>
<g id="clust7" class="cluster">
<title>cluster_CatsModule</title>
<polygon fill="none" stroke="black" stroke-dasharray="1,5" points="372,-138 372,-206 628,-206 628,-138 372,-138"/>
</g>
<g id="clust10" class="cluster">
<title>cluster_CatsModule_exports</title>
<polygon fill="none" stroke="black" points="518,-146 518,-198 620,-198 620,-146 518,-146"/>
</g>
<g id="clust12" class="cluster">
<title>cluster_CatsModule_providers</title>
<polygon fill="none" stroke="black" points="380,-146 380,-198 510,-198 510,-146 380,-146"/>
</g>
<!-- CatsModule -->
<g id="node1" class="node">
<title>CatsModule</title>
<polygon fill="#8dd3c7" stroke="black" points="348.44,-122 345.44,-126 324.44,-126 321.44,-122 263.56,-122 263.56,-86 348.44,-86 348.44,-122"/>
<text text-anchor="middle" x="306" y="-99.8" font-family="Times,serif" font-size="14.00">CatsModule</text>
</g>
<!-- AppModule -->
<g id="node3" class="node">
<title>AppModule</title>
<polygon fill="#8dd3c7" stroke="black" points="245.66,-190 242.66,-194 221.66,-194 218.66,-190 162.34,-190 162.34,-154 245.66,-154 245.66,-190"/>
<text text-anchor="middle" x="204" y="-167.8" font-family="Times,serif" font-size="14.00">AppModule</text>
</g>
<!-- CatsModule&#45;&gt;AppModule -->
<g id="edge1" class="edge">
<title>CatsModule&#45;&gt;AppModule</title>
<path fill="none" stroke="black" d="M291.93,-122.29C291.93,-144.21 291.93,-178 291.93,-178 291.93,-178 255.9,-178 255.9,-178"/>
<polygon fill="black" stroke="black" points="255.9,-174.5 245.9,-178 255.9,-181.5 255.9,-174.5"/>
</g>
<!-- CatsService  -->
<g id="node5" class="node">
<title>CatsService </title>
<polygon fill="#fb8072" stroke="black" points="612.36,-190 525.64,-190 525.64,-154 612.36,-154 612.36,-190"/>
<text text-anchor="middle" x="569" y="-167.8" font-family="Times,serif" font-size="14.00">CatsService </text>
</g>
<!-- CatsModule&#45;&gt;CatsService  -->
<g id="edge4" class="edge">
<title>CatsModule&#45;&gt;CatsService </title>
<path fill="none" stroke="black" stroke-dasharray="5,2" d="M348.26,-104C422.6,-104 569,-104 569,-104 569,-104 569,-143.78 569,-143.78"/>
<polygon fill="black" stroke="black" points="565.5,-143.78 569,-153.78 572.5,-143.78 565.5,-143.78"/>
</g>
<!-- DogModule -->
<g id="node2" class="node">
<title>DogModule</title>
<polygon fill="#8dd3c7" stroke="black" points="245.66,-122 242.66,-126 221.66,-126 218.66,-122 162.34,-122 162.34,-86 245.66,-86 245.66,-122"/>
<text text-anchor="middle" x="204" y="-99.8" font-family="Times,serif" font-size="14.00">DogModule</text>
</g>
<!-- DogModule&#45;&gt;AppModule -->
<g id="edge2" class="edge">
<title>DogModule&#45;&gt;AppModule</title>
<path fill="none" stroke="black" d="M204,-122.22C204,-122.22 204,-143.73 204,-143.73"/>
<polygon fill="black" stroke="black" points="200.5,-143.73 204,-153.73 207.5,-143.73 200.5,-143.73"/>
</g>
<!-- AppService -->
<g id="node4" class="node">
<title>AppService</title>
<ellipse fill="#fdb462" stroke="black" cx="81" cy="-104" rx="56.74" ry="18"/>
<text text-anchor="middle" x="81" y="-99.8" font-family="Times,serif" font-size="14.00">AppService</text>
</g>
<!-- AppService&#45;&gt;AppModule -->
<g id="edge3" class="edge">
<title>AppService&#45;&gt;AppModule</title>
<path fill="none" stroke="black" d="M81,-122.22C81,-142.37 81,-172 81,-172 81,-172 152.01,-172 152.01,-172"/>
<polygon fill="black" stroke="black" points="152.01,-175.5 162.01,-172 152.01,-168.5 152.01,-175.5"/>
</g>
<!-- CatsService -->
<g id="node6" class="node">
<title>CatsService</title>
<ellipse fill="#fdb462" stroke="black" cx="445" cy="-172" rx="57.32" ry="18"/>
<text text-anchor="middle" x="445" y="-167.8" font-family="Times,serif" font-size="14.00">CatsService</text>
</g>
<!-- CatsService&#45;&gt;CatsModule -->
<g id="edge5" class="edge">
<title>CatsService&#45;&gt;CatsModule</title>
<path fill="none" stroke="black" d="M390.93,-166C357.17,-166 320.07,-166 320.07,-166 320.07,-166 320.07,-132.27 320.07,-132.27"/>
<polygon fill="black" stroke="black" points="323.57,-132.27 320.07,-122.27 316.57,-132.27 323.57,-132.27"/>
</g>
</g>
</svg>
